<?xml version="1.0" encoding="UTF-8"?>
<!DOCTYPE svg PUBLIC "-//W3C//DTD SVG 1.1//EN" "http://www.w3.org/Graphics/SVG/1.1/DTD/svg11.dtd">
<svg xmlns="http://www.w3.org/2000/svg" version="1.1" width="610px" height="260px" style="shape-rendering:geometricPrecision; text-rendering:geometricPrecision; image-rendering:optimizeQuality; fill-rule:evenodd; clip-rule:evenodd" xmlns:xlink="http://www.w3.org/1999/xlink">
<g><path style="opacity:0.955" fill="#003980" d="M 86.5,2.5 C 101.883,2.08235 117.216,2.58235 132.5,4C 151.543,11.237 160.043,25.0704 158,45.5C 154.722,62.7786 144.555,73.6119 127.5,78C 113.833,78.6667 100.167,78.6667 86.5,78C 86,77.5 85.5,77 85,76.5C 83.3543,53.2547 83.0209,29.9214 84,6.5C 84.6622,5.01608 85.4955,3.68275 86.5,2.5 Z M 106.5,21.5 C 112.842,21.3338 119.175,21.5005 125.5,22C 134.109,25.1171 138.775,31.2838 139.5,40.5C 137.375,54.294 129.375,60.6273 115.5,59.5C 112.167,59.3333 108.833,59.1667 105.5,59C 105,58.5 104.5,58 104,57.5C 102.381,46.9319 102.048,36.2653 103,25.5C 103.69,23.6498 104.856,22.3164 106.5,21.5 Z"/></g>
<g><path style="opacity:0.954" fill="#003980" d="M 193.5,2.5 C 198.43,2.19749 203.263,2.53082 208,3.5C 219.856,27.0444 231.023,50.8778 241.5,75C 241.415,76.1074 241.081,77.1074 240.5,78C 234.5,78.6667 228.5,78.6667 222.5,78C 220.833,75 219.167,72 217.5,69C 205.833,68.3333 194.167,68.3333 182.5,69C 180.455,71.5864 178.789,74.4198 177.5,77.5C 170.944,78.81 164.444,78.81 158,77.5C 157.333,75.8333 157.333,74.1667 158,72.5C 169.591,48.9842 181.424,25.6509 193.5,2.5 Z M 198.5,34.5 C 199.822,34.33 200.989,34.6634 202,35.5C 204.194,39.7486 206.194,44.082 208,48.5C 208.684,49.7839 208.517,50.9505 207.5,52C 202.249,52.8037 197.082,52.637 192,51.5C 193.022,45.4461 195.189,39.7794 198.5,34.5 Z"/></g>
<g><path style="opacity:0.964" fill="#003980" d="M 228.5,2.5 C 253.408,2.17218 278.241,2.50552 303,3.5C 303.804,8.75132 303.637,13.918 302.5,19C 293.589,19.1814 284.755,19.6814 276,20.5C 275.821,39.5435 275.321,58.5435 274.5,77.5C 268.612,78.8074 262.779,78.8074 257,77.5C 256.667,58.8333 256.333,40.1667 256,21.5C 255.5,21 255,20.5 254.5,20C 245.833,19.6667 237.167,19.3333 228.5,19C 227.189,13.5004 227.189,8.00037 228.5,2.5 Z"/></g>
<g><path style="opacity:0.955" fill="#003980" d="M 325.5,2.5 C 330.43,2.19749 335.263,2.53082 340,3.5C 351.856,27.0444 363.023,50.8778 373.5,75C 373.415,76.1074 373.081,77.1074 372.5,78C 366.5,78.6667 360.5,78.6667 354.5,78C 352.833,75 351.167,72 349.5,69C 337.833,68.3333 326.167,68.3333 314.5,69C 312.455,71.5864 310.789,74.4198 309.5,77.5C 302.944,78.81 296.444,78.81 290,77.5C 289.333,75.8333 289.333,74.1667 290,72.5C 301.591,48.9842 313.424,25.6509 325.5,2.5 Z M 330.5,34.5 C 331.822,34.33 332.989,34.6634 334,35.5C 335.806,39.918 337.806,44.2514 340,48.5C 340.684,49.7839 340.517,50.9505 339.5,52C 334.249,52.8037 329.082,52.637 324,51.5C 325.022,45.4461 327.189,39.7794 330.5,34.5 Z"/></g>
<g><path style="opacity:0.955" fill="#006e8a" d="M 65.5,46.5 C 59.8333,41.5 54.5,36.1667 49.5,30.5C 55.5586,26.2271 61.3919,26.5605 67,31.5C 70.5312,36.9995 70.0312,41.9995 65.5,46.5 Z"/></g>
<g><path style="opacity:0.957" fill="#0b6497" d="M 49.5,30.5 C 54.5,36.1667 59.8333,41.5 65.5,46.5C 63.6682,48.8942 61.1682,49.8942 58,49.5C 55.41,49.6243 53.0767,48.9577 51,47.5C 49.2927,49.0375 47.7927,50.7041 46.5,52.5C 45.1667,52.5 44.5,51.8333 44.5,50.5C 46.352,49.4802 47.6853,47.9802 48.5,46C 45.5887,40.5031 45.922,35.3364 49.5,30.5 Z"/></g>
<g><path style="opacity:0.964" fill="#0053a5" d="M 44.5,50.5 C 44.5,51.8333 45.1667,52.5 46.5,52.5C 47.6005,53.6049 48.2671,54.9382 48.5,56.5C 36.5399,57.6089 24.5399,58.2756 12.5,58.5C 17.1557,49.6712 24.489,45.8378 34.5,47C 37.951,47.8952 41.2843,49.0618 44.5,50.5 Z"/></g>
<g><path style="opacity:0.976" fill="#005e9a" d="M 48.5,56.5 C 51.0479,59.9961 52.3813,63.9961 52.5,68.5C 38.4775,69.4269 24.4775,70.4269 10.5,71.5C 10.1502,66.9639 10.8169,62.6306 12.5,58.5C 24.5399,58.2756 36.5399,57.6089 48.5,56.5 Z"/></g>
<g><path style="opacity:0.966" fill="#036c8d" d="M 52.5,68.5 C 52.0458,72.149 51.0458,75.649 49.5,79C 51.2895,81.1642 53.4562,82.9975 56,84.5C 62.0886,77.844 68.9219,76.844 76.5,81.5C 70.5,88.5 64.5,95.5 58.5,102.5C 56.0158,100.88 54.5158,98.5469 54,95.5C 53.6799,92.4601 53.6799,89.4601 54,86.5C 51.6744,84.9343 49.5078,83.2676 47.5,81.5C 46.036,80.8401 44.3693,80.5068 42.5,80.5C 33.8107,81.0935 25.1441,81.7602 16.5,82.5C 13.3845,79.5268 11.3845,75.8601 10.5,71.5C 24.4775,70.4269 38.4775,69.4269 52.5,68.5 Z"/></g>
<g><path style="opacity:0.924" fill="#007286" d="M 47.5,81.5 C 40.3601,88.4146 32.0267,90.2479 22.5,87C 20.2528,85.7225 18.2528,84.2225 16.5,82.5C 25.1441,81.7602 33.8107,81.0935 42.5,80.5C 44.3693,80.5068 46.036,80.8401 47.5,81.5 Z"/></g>
<g><path style="opacity:0.911" fill="#096497" d="M 76.5,81.5 C 84.4385,88.8721 84.4385,96.3721 76.5,104C 73.1295,106.078 69.4629,106.911 65.5,106.5C 65.3003,109.63 64.6336,112.63 63.5,115.5C 62.8333,115.167 62.1667,114.833 61.5,114.5C 62.6336,111.63 63.3003,108.63 63.5,105.5C 61.0672,105.727 59.4006,104.727 58.5,102.5C 64.5,95.5 70.5,88.5 76.5,81.5 Z"/></g>
<g><path style="opacity:0.942" fill="#00605f" d="M 184.5,91.5 C 194.595,91.1902 203.928,93.6902 212.5,99C 215.432,101.423 217.765,104.257 219.5,107.5C 217.035,112.413 213.035,115.413 207.5,116.5C 203.217,114.696 198.884,112.863 194.5,111C 181.85,108.908 173.017,113.741 168,125.5C 165.532,142.023 172.532,151.356 189,153.5C 190.833,153.333 192.667,153.167 194.5,153C 198.884,151.137 203.217,149.304 207.5,147.5C 211.96,148.791 215.793,151.124 219,154.5C 219.667,155.833 219.667,157.167 219,158.5C 205.817,171.895 190.317,175.395 172.5,169C 156.986,161.659 148.986,149.326 148.5,132C 150.191,109.151 162.191,95.6507 184.5,91.5 Z"/></g>
<g><path style="opacity:0.934" fill="#00605f" d="M 232.5,93.5 C 249.837,93.3334 267.17,93.5001 284.5,94C 285.416,94.3742 286.25,94.8742 287,95.5C 287.802,100.419 287.635,105.252 286.5,110C 274.596,111.293 262.596,111.96 250.5,112C 249.167,115.667 249.167,119.333 250.5,123C 259.5,123.333 268.5,123.667 277.5,124C 278,124.5 278.5,125 279,125.5C 279.667,129.833 279.667,134.167 279,138.5C 278.5,139 278,139.5 277.5,140C 268.452,140.194 259.452,140.694 250.5,141.5C 249.343,144.784 249.176,148.118 250,151.5C 250.5,152 251,152.5 251.5,153C 263.167,153.333 274.833,153.667 286.5,154C 287.833,159 287.833,164 286.5,169C 277.263,170.141 267.929,170.641 258.5,170.5C 249.833,170.333 241.167,170.167 232.5,170C 231.692,169.692 231.025,169.192 230.5,168.5C 229.344,144.876 229.177,121.209 230,97.5C 230.662,96.0161 231.496,94.6828 232.5,93.5 Z"/></g>
<g><path style="opacity:0.958" fill="#00605f" d="M 306.5,93.5 C 311.628,93.1115 316.628,93.6115 321.5,95C 333.058,109.298 344.724,123.465 356.5,137.5C 357.333,124.179 357.833,110.846 358,97.5C 359.972,94.1113 362.972,92.778 367,93.5C 370.521,93.0832 373.521,94.0832 376,96.5C 376.667,120.167 376.667,143.833 376,167.5C 375.692,168.308 375.192,168.975 374.5,169.5C 368.439,170.951 362.439,170.784 356.5,169C 345.701,155.036 334.368,141.536 322.5,128.5C 321.667,141.154 321.167,153.82 321,166.5C 320.5,168.333 319.333,169.5 317.5,170C 312.442,171.01 307.609,170.51 303,168.5C 302.333,144.5 302.333,120.5 303,96.5C 303.985,95.1859 305.152,94.1859 306.5,93.5 Z"/></g>
<g><path style="opacity:0.935" fill="#00605f" d="M 386.5,93.5 C 410.878,93.1766 435.212,93.5099 459.5,94.5C 460.806,100.054 460.806,105.554 459.5,111C 450.589,111.181 441.755,111.681 433,112.5C 432.667,131.167 432.333,149.833 432,168.5C 431.5,169 431,169.5 430.5,170C 425.113,170.784 419.78,170.618 414.5,169.5C 413.667,150.509 413.167,131.509 413,112.5C 404.245,111.681 395.411,111.181 386.5,111C 386,110.5 385.5,110 385,109.5C 383.946,103.886 384.446,98.5522 386.5,93.5 Z"/></g>
<g><path style="opacity:0.935" fill="#00605f" d="M 471.5,93.5 C 488.837,93.3334 506.17,93.5001 523.5,94C 524.416,94.3742 525.25,94.8742 526,95.5C 526.802,100.419 526.635,105.252 525.5,110C 513.248,111.129 500.915,111.962 488.5,112.5C 486.91,116.262 487.243,119.762 489.5,123C 498.5,123.333 507.5,123.667 516.5,124C 517,124.5 517.5,125 518,125.5C 518.667,129.833 518.667,134.167 518,138.5C 517.5,139 517,139.5 516.5,140C 507.5,140.333 498.5,140.667 489.5,141C 487.496,143.841 486.996,147.007 488,150.5C 488.5,151.667 489.333,152.5 490.5,153C 502.167,153.333 513.833,153.667 525.5,154C 526.635,158.748 526.802,163.581 526,168.5C 525.5,169 525,169.5 524.5,170C 506.833,170.667 489.167,170.667 471.5,170C 470.584,169.626 469.75,169.126 469,168.5C 468.333,144.5 468.333,120.5 469,96.5C 469.698,95.3094 470.531,94.3094 471.5,93.5 Z"/></g>
<g><path style="opacity:0.938" fill="#00605f" d="M 539.5,93.5 C 551.838,93.3335 564.171,93.5001 576.5,94C 588.562,95.4425 596.395,101.942 600,113.5C 603.106,124.066 601.439,133.733 595,142.5C 592.92,144.123 590.754,145.623 588.5,147C 592.633,153.433 597.133,159.599 602,165.5C 602.711,167.367 602.211,168.867 600.5,170C 594.167,170.667 587.833,170.667 581.5,170C 577.111,164.611 573.111,158.944 569.5,153C 565.371,151.269 561.204,151.102 557,152.5C 556.667,157.833 556.333,163.167 556,168.5C 555.5,169 555,169.5 554.5,170C 549.167,170.667 543.833,170.667 538.5,170C 538,169.5 537.5,169 537,168.5C 536.333,144.5 536.333,120.5 537,96.5C 537.698,95.3094 538.531,94.3094 539.5,93.5 Z M 558.5,113.5 C 563.511,113.334 568.511,113.501 573.5,114C 581.049,116.93 583.216,122.097 580,129.5C 578.786,131.049 577.286,132.215 575.5,133C 569.5,133.667 563.5,133.667 557.5,133C 556.359,127.25 556.193,121.416 557,115.5C 557.717,114.956 558.217,114.289 558.5,113.5 Z"/></g>
<g><path style="opacity:0.906" fill="#006e8a" d="M 104.5,101.5 C 99.8137,102.037 95.147,102.704 90.5,103.5C 89.2376,100.133 90.2376,97.2996 93.5,95C 100.075,92.7239 103.742,94.8906 104.5,101.5 Z"/></g>
<g><path style="opacity:0.955" fill="#006e8a" d="M 38.5,108.5 C 31.1606,106.831 23.8273,105.164 16.5,103.5C 17.914,97.9359 21.5807,94.9359 27.5,94.5C 35.4612,95.7437 39.1279,100.41 38.5,108.5 Z"/></g>
<g><path style="opacity:0.801" fill="#216a9d" d="M 104.5,101.5 C 104.854,104.421 103.854,106.754 101.5,108.5C 102.519,110.604 103.519,112.604 104.5,114.5C 104.158,115.338 103.492,115.672 102.5,115.5C 101.002,110.006 97.3349,107.839 91.5,109C 85.6635,114.004 79.9969,119.171 74.5,124.5C 73.6618,124.158 73.3284,123.492 73.5,122.5C 78.8303,117.337 84.3303,112.337 90,107.5C 90.49,106.207 90.6567,104.873 90.5,103.5C 95.147,102.704 99.8137,102.037 104.5,101.5 Z"/></g>
<g><path style="opacity:0.929" fill="#006197" d="M 16.5,103.5 C 23.8273,105.164 31.1606,106.831 38.5,108.5C 35.9238,116.29 30.5905,119.124 22.5,117C 16.9897,113.831 14.9897,109.331 16.5,103.5 Z"/></g>
<g><path style="opacity:0.97" fill="#006d8b" d="M 61.5,114.5 C 62.1667,114.833 62.8333,115.167 63.5,115.5C 67.5798,116.864 70.9131,119.198 73.5,122.5C 73.3284,123.492 73.6618,124.158 74.5,124.5C 77.6838,130.139 78.0172,135.806 75.5,141.5C 66.1667,133.167 56.8333,124.833 47.5,116.5C 47.9175,115.778 48.5842,115.278 49.5,115C 53.4862,114.501 57.4862,114.334 61.5,114.5 Z"/></g>
<g><path style="opacity:0.951" fill="#0053a5" d="M 104.5,114.5 C 110.732,113.939 116.732,114.772 122.5,117C 124.041,118.371 125.375,119.871 126.5,121.5C 115.4,122.961 104.4,124.961 93.5,127.5C 92.8933,127.376 92.56,127.043 92.5,126.5C 94.4481,121.553 97.7815,117.886 102.5,115.5C 103.492,115.672 104.158,115.338 104.5,114.5 Z"/></g>
<g><path style="opacity:0.971" fill="#006296" d="M 47.5,116.5 C 56.8333,124.833 66.1667,133.167 75.5,141.5C 74.7574,145.915 72.4241,149.248 68.5,151.5C 58.4369,142.764 48.1036,134.431 37.5,126.5C 39.1667,121.5 42.5,118.167 47.5,116.5 Z"/></g>
<g><path style="opacity:0.973" fill="#005e9a" d="M 126.5,121.5 C 129.444,123.716 131.111,126.716 131.5,130.5C 117.754,132.916 104.088,135.583 90.5,138.5C 90.1977,134.21 90.8643,130.21 92.5,126.5C 92.56,127.043 92.8933,127.376 93.5,127.5C 104.4,124.961 115.4,122.961 126.5,121.5 Z"/></g>
<g><path style="opacity:0.967" fill="#0058a0" d="M 37.5,126.5 C 48.1036,134.431 58.4369,142.764 68.5,151.5C 56.1382,158.491 45.8049,156.157 37.5,144.5C 37.6716,143.508 37.3382,142.842 36.5,142.5C 34.8563,137.002 35.1897,131.668 37.5,126.5 Z"/></g>
<g><path style="opacity:0.983" fill="#006a8e" d="M 131.5,130.5 C 131.5,133.833 131.5,137.167 131.5,140.5C 119.185,142.608 106.852,144.608 94.5,146.5C 92.6567,144.147 91.3234,141.48 90.5,138.5C 104.088,135.583 117.754,132.916 131.5,130.5 Z"/></g>
<g><path style="opacity:0.952" fill="#0054a5" d="M 14.5,137.5 C 21.0651,137.129 26.3984,139.462 30.5,144.5C 30.2627,145.791 30.596,146.791 31.5,147.5C 31.665,150.85 31.4983,154.183 31,157.5C 30.7216,158.416 30.2216,159.082 29.5,159.5C 24.5,152.167 19.5,144.833 14.5,137.5 Z"/></g>
<g><path style="opacity:0.959" fill="#005e9a" d="M 14.5,137.5 C 19.5,144.833 24.5,152.167 29.5,159.5C 27.8876,163.488 24.8876,165.821 20.5,166.5C 15.5216,158.863 10.1883,151.53 4.5,144.5C 6.77992,140.691 10.1133,138.358 14.5,137.5 Z"/></g>
<g><path style="opacity:0.551" fill="#3d809e" d="M 36.5,142.5 C 37.3382,142.842 37.6716,143.508 37.5,144.5C 35.4261,145.514 33.4261,146.514 31.5,147.5C 30.596,146.791 30.2627,145.791 30.5,144.5C 32.7028,144.396 34.7028,143.73 36.5,142.5 Z"/></g>
<g><path style="opacity:0.893" fill="#007683" d="M 131.5,140.5 C 123.46,156.564 111.794,159.731 96.5,150C 95.695,148.887 95.0283,147.721 94.5,146.5C 106.852,144.608 119.185,142.608 131.5,140.5 Z"/></g>
<g><path style="opacity:0.808" fill="#00698f" d="M 4.5,144.5 C 10.1883,151.53 15.5216,158.863 20.5,166.5C 9.9872,167.582 3.9872,162.915 2.5,152.5C 2.56373,149.65 3.2304,146.983 4.5,144.5 Z"/></g>
<g><path style="opacity:0.864" fill="#000000" d="M 154.5,191.5 C 161.574,191.161 168.574,191.661 175.5,193C 179.096,197.208 179.429,201.708 176.5,206.5C 179.866,210.429 180.366,214.762 178,219.5C 177.097,220.701 175.931,221.535 174.5,222C 167.842,222.5 161.175,222.666 154.5,222.5C 154.5,212.167 154.5,201.833 154.5,191.5 Z M 161.5,197.5 C 164.187,197.336 166.854,197.503 169.5,198C 171.527,199.396 171.86,201.062 170.5,203C 167.518,203.498 164.518,203.665 161.5,203.5C 161.5,201.5 161.5,199.5 161.5,197.5 Z M 161.5,209.5 C 164.397,209.319 167.23,209.652 170,210.5C 172.282,211.711 172.782,213.378 171.5,215.5C 168.232,216.487 164.898,216.82 161.5,216.5C 161.5,214.167 161.5,211.833 161.5,209.5 Z"/></g>
<g><path style="opacity:0.851" fill="#000000" d="M 182.5,191.5 C 184.833,191.5 187.167,191.5 189.5,191.5C 189.152,198.906 189.652,206.239 191,213.5C 194.333,217.5 197.667,217.5 201,213.5C 202.348,206.239 202.848,198.906 202.5,191.5C 204.833,191.5 207.167,191.5 209.5,191.5C 209.91,200.25 209.41,208.916 208,217.5C 200.1,225.476 192.1,225.476 184,217.5C 182.59,208.916 182.09,200.25 182.5,191.5 Z"/></g>
<g><path style="opacity:0.861" fill="#000000" d="M 249.5,191.5 C 252.119,191.232 254.619,191.565 257,192.5C 261.138,202.418 264.971,212.418 268.5,222.5C 265.833,222.5 263.167,222.5 260.5,222.5C 260.55,217.387 258.05,215.387 253,216.5C 248.569,215.436 246.069,217.103 245.5,221.5C 240.198,222.663 234.864,222.829 229.5,222C 227.873,219.246 226.373,216.412 225,213.5C 223.644,212.62 222.144,212.286 220.5,212.5C 220.5,215.833 220.5,219.167 220.5,222.5C 218.167,222.5 215.833,222.5 213.5,222.5C 213.5,212.5 213.5,202.5 213.5,192.5C 219.842,192.334 226.175,192.5 232.5,193C 236.939,195.976 238.439,200.143 237,205.5C 236.122,208.215 234.622,210.549 232.5,212.5C 234,215.5 235.5,218.5 237,221.5C 241.44,211.619 245.607,201.619 249.5,191.5 Z M 220.5,198.5 C 223.187,198.336 225.854,198.503 228.5,199C 229.833,201 229.833,203 228.5,205C 225.986,206.252 223.32,206.752 220.5,206.5C 220.5,203.833 220.5,201.167 220.5,198.5 Z M 252.5,201.5 C 254.006,203.975 255.339,206.642 256.5,209.5C 254.235,210.647 251.902,210.814 249.5,210C 250.929,207.31 251.929,204.477 252.5,201.5 Z"/></g>
<g><path style="opacity:0.834" fill="#000000" d="M 298.5,191.5 C 300.833,191.5 303.167,191.5 305.5,191.5C 305.5,195.5 305.5,199.5 305.5,203.5C 309.5,203.5 313.5,203.5 317.5,203.5C 317.5,199.5 317.5,195.5 317.5,191.5C 320.167,191.5 322.833,191.5 325.5,191.5C 325.5,201.833 325.5,212.167 325.5,222.5C 322.833,222.5 320.167,222.5 317.5,222.5C 317.5,218.5 317.5,214.5 317.5,210.5C 313.5,210.5 309.5,210.5 305.5,210.5C 305.5,214.5 305.5,218.5 305.5,222.5C 303.167,222.5 300.833,222.5 298.5,222.5C 298.5,212.167 298.5,201.833 298.5,191.5 Z"/></g>
<g><path style="opacity:0.837" fill="#000000" d="M 339.5,191.5 C 342.119,191.232 344.619,191.565 347,192.5C 351.53,202.262 355.364,212.262 358.5,222.5C 356.143,222.663 353.81,222.497 351.5,222C 350.709,217.664 348.042,215.83 343.5,216.5C 338.958,215.83 336.291,217.664 335.5,222C 332.833,222.667 330.167,222.667 327.5,222C 331.6,211.866 335.6,201.699 339.5,191.5 Z M 342.5,202.5 C 344.555,204.234 345.888,206.567 346.5,209.5C 344.235,210.647 341.902,210.814 339.5,210C 340.991,207.692 341.991,205.192 342.5,202.5 Z"/></g>
<g><path style="opacity:0.681" fill="#000000" d="M 377.5,191.5 C 378.5,191.5 379.5,191.5 380.5,191.5C 380.334,199.174 380.5,206.841 381,214.5C 382.664,218.084 385.497,219.751 389.5,219.5C 394.005,219.833 396.839,217.833 398,213.5C 398.5,206.174 398.666,198.841 398.5,191.5C 399.5,191.5 400.5,191.5 401.5,191.5C 401.914,200.582 401.414,209.582 400,218.5C 397.131,221.886 393.464,223.219 389,222.5C 383.686,223.519 380.019,221.519 378,216.5C 377.5,208.173 377.334,199.84 377.5,191.5 Z"/></g>
<g><path style="opacity:0.682" fill="#000000" d="M 406.5,191.5 C 408.39,191.297 409.89,191.963 411,193.5C 416,200.833 421,208.167 426,215.5C 426.5,207.507 426.666,199.507 426.5,191.5C 427.5,191.5 428.5,191.5 429.5,191.5C 429.5,201.833 429.5,212.167 429.5,222.5C 427.61,222.703 426.11,222.037 425,220.5C 420,213.167 415,205.833 410,198.5C 409.5,206.493 409.334,214.493 409.5,222.5C 408.5,222.5 407.5,222.5 406.5,222.5C 406.5,212.167 406.5,201.833 406.5,191.5 Z"/></g>
<g><path style="opacity:0.712" fill="#000000" d="M 435.5,191.5 C 436.5,191.5 437.5,191.5 438.5,191.5C 438.5,201.833 438.5,212.167 438.5,222.5C 437.5,222.5 436.5,222.5 435.5,222.5C 435.5,212.167 435.5,201.833 435.5,191.5 Z"/></g>
<g><path style="opacity:0.629" fill="#000000" d="M 443.5,191.5 C 444.822,191.33 445.989,191.663 447,192.5C 449.952,200.696 453.285,208.696 457,216.5C 460.069,208.46 463.235,200.46 466.5,192.5C 467.833,191.167 469.167,191.167 470.5,192.5C 466.569,201.793 462.736,211.126 459,220.5C 458.612,221.428 457.945,222.095 457,222.5C 454.974,221.48 453.641,219.813 453,217.5C 449.535,208.91 446.368,200.244 443.5,191.5 Z"/></g>
<g><path style="opacity:0.659" fill="#000000" d="M 474.5,191.5 C 481.167,191.5 487.833,191.5 494.5,191.5C 494.5,192.5 494.5,193.5 494.5,194.5C 489.167,194.5 483.833,194.5 478.5,194.5C 478.5,198.5 478.5,202.5 478.5,206.5C 494.5,207.167 494.5,207.833 478.5,208.5C 478.5,212.5 478.5,216.5 478.5,220.5C 483.875,220.172 489.208,220.505 494.5,221.5C 487.866,222.497 481.2,222.83 474.5,222.5C 474.5,212.167 474.5,201.833 474.5,191.5 Z"/></g>
<g><path style="opacity:0.665" fill="#000000" d="M 498.5,191.5 C 503.511,191.334 508.511,191.501 513.5,192C 515.848,192.346 517.681,193.513 519,195.5C 521.281,202.343 519.114,206.843 512.5,209C 514.707,213.247 517.04,217.414 519.5,221.5C 518.167,222.833 516.833,222.833 515.5,221.5C 513.754,217.673 511.754,214.007 509.5,210.5C 506.914,209.52 504.247,209.187 501.5,209.5C 501.5,213.833 501.5,218.167 501.5,222.5C 500.5,222.5 499.5,222.5 498.5,222.5C 498.5,212.167 498.5,201.833 498.5,191.5 Z M 501.5,194.5 C 505.514,194.334 509.514,194.501 513.5,195C 517.631,199.026 517.298,202.693 512.5,206C 508.848,206.499 505.182,206.665 501.5,206.5C 501.5,202.5 501.5,198.5 501.5,194.5 Z"/></g>
<g><path style="opacity:0.643" fill="#000000" d="M 529.5,191.5 C 533.881,191.372 538.215,191.705 542.5,192.5C 542.5,193.5 542.5,194.5 542.5,195.5C 538.524,194.669 534.524,194.503 530.5,195C 526.576,197.818 526.576,200.818 530.5,204C 534.531,205.432 538.364,207.266 542,209.5C 545.092,218.744 541.758,223.077 532,222.5C 529.5,222.333 527,222.167 524.5,222C 523.663,220.989 523.33,219.822 523.5,218.5C 528.129,219.481 532.796,219.648 537.5,219C 541.041,216.718 541.374,214.051 538.5,211C 533.468,209.402 528.968,206.902 525,203.5C 523.307,198.085 524.807,194.085 529.5,191.5 Z"/></g>
<g><path style="opacity:0.533" fill="#000000" d="M 547.5,191.5 C 548.833,191.5 550.167,191.5 551.5,191.5C 551.5,201.833 551.5,212.167 551.5,222.5C 550.167,222.5 548.833,222.5 547.5,222.5C 547.5,212.167 547.5,201.833 547.5,191.5 Z"/></g>
<g><path style="opacity:0.597" fill="#000000" d="M 554.5,191.5 C 562.167,191.5 569.833,191.5 577.5,191.5C 577.5,192.5 577.5,193.5 577.5,194.5C 574.5,194.5 571.5,194.5 568.5,194.5C 568.5,203.833 568.5,213.167 568.5,222.5C 567.167,222.5 565.833,222.5 564.5,222.5C 564.5,213.167 564.5,203.833 564.5,194.5C 561.167,194.5 557.833,194.5 554.5,194.5C 554.5,193.5 554.5,192.5 554.5,191.5 Z"/></g>
<g><path style="opacity:0.63" fill="#000000" d="M 580.5,191.5 C 582.39,191.297 583.89,191.963 585,193.5C 587.667,198.167 590.333,202.833 593,207.5C 595.667,202.833 598.333,198.167 601,193.5C 602.241,191.579 603.741,191.246 605.5,192.5C 601.8,198.37 598.3,204.37 595,210.5C 594.501,214.486 594.334,218.486 594.5,222.5C 593.5,222.5 592.5,222.5 591.5,222.5C 591.666,218.486 591.499,214.486 591,210.5C 586.968,204.434 583.468,198.101 580.5,191.5 Z"/></g>
<g><path style="opacity:0.897" fill="#000000" d="M 271.5,192.5 C 277.842,192.334 284.175,192.5 290.5,193C 292.667,193.833 294.167,195.333 295,197.5C 297.145,210.514 291.645,215.514 278.5,212.5C 278.5,215.833 278.5,219.167 278.5,222.5C 276.167,222.5 273.833,222.5 271.5,222.5C 271.5,212.5 271.5,202.5 271.5,192.5 Z M 278.5,198.5 C 281.187,198.336 283.854,198.503 286.5,199C 289.167,201.333 289.167,203.667 286.5,206C 283.854,206.497 281.187,206.664 278.5,206.5C 278.5,203.833 278.5,201.167 278.5,198.5 Z"/></g>
<g><path style="opacity:0.998" fill="#eec124" d="M 151.5,228.5 C 223.833,228.5 296.167,228.5 368.5,228.5C 368.5,235.833 368.5,243.167 368.5,250.5C 296.167,250.5 223.833,250.5 151.5,250.5C 151.5,243.167 151.5,235.833 151.5,228.5 Z"/></g>
<g><path style="opacity:0.69" fill="#000000" d="M 377.5,231.5 C 380.448,231.223 383.281,231.556 386,232.5C 386.781,233.944 386.614,235.277 385.5,236.5C 380.059,234.13 377.559,235.797 378,241.5C 380.6,243.891 383.267,243.891 386,241.5C 386.72,243.112 386.554,244.612 385.5,246C 376.211,248.29 372.378,244.79 374,235.5C 374.69,233.65 375.856,232.316 377.5,231.5 Z"/></g>
<g><path style="opacity:0.718" fill="#000000" d="M 387.5,231.5 C 388.833,231.5 390.167,231.5 391.5,231.5C 391.5,233.5 391.5,235.5 391.5,237.5C 393.167,237.5 394.833,237.5 396.5,237.5C 396.5,235.5 396.5,233.5 396.5,231.5C 397.833,231.5 399.167,231.5 400.5,231.5C 400.5,236.5 400.5,241.5 400.5,246.5C 399.167,246.5 397.833,246.5 396.5,246.5C 396.5,244.5 396.5,242.5 396.5,240.5C 394.833,240.5 393.167,240.5 391.5,240.5C 391.5,242.5 391.5,244.5 391.5,246.5C 390.167,246.5 388.833,246.5 387.5,246.5C 387.5,241.5 387.5,236.5 387.5,231.5 Z"/></g>
<g><path style="opacity:0.71" fill="#000000" d="M 406.5,231.5 C 407.978,231.238 409.311,231.571 410.5,232.5C 412.966,236.898 414.632,241.565 415.5,246.5C 412.761,246.293 410.427,245.293 408.5,243.5C 406.573,245.293 404.239,246.293 401.5,246.5C 402.581,241.257 404.248,236.257 406.5,231.5 Z M 407.5,238.5 C 409.337,238.639 409.67,239.306 408.5,240.5C 407.702,240.043 407.369,239.376 407.5,238.5 Z"/></g>
<g><path style="opacity:0.699" fill="#000000" d="M 416.5,231.5 C 417.873,231.343 419.207,231.51 420.5,232C 422,234.167 423.5,236.333 425,238.5C 425.497,236.19 425.663,233.857 425.5,231.5C 430.833,231.5 436.167,231.5 441.5,231.5C 441.5,232.833 441.5,234.167 441.5,235.5C 440.167,235.5 438.833,235.5 437.5,235.5C 437.5,239.167 437.5,242.833 437.5,246.5C 436.167,246.5 434.833,246.5 433.5,246.5C 433.5,242.833 433.5,239.167 433.5,235.5C 432.167,235.5 430.833,235.5 429.5,235.5C 429.5,239.167 429.5,242.833 429.5,246.5C 425.044,246.352 422.21,244.019 421,239.5C 420.503,241.81 420.337,244.143 420.5,246.5C 419.167,246.5 417.833,246.5 416.5,246.5C 416.5,241.5 416.5,236.5 416.5,231.5 Z"/></g>
<g><path style="opacity:0.808" fill="#000000" d="M 442.5,231.5 C 443.5,231.5 444.5,231.5 445.5,231.5C 445.5,233.5 445.5,235.5 445.5,237.5C 447.167,237.5 448.833,237.5 450.5,237.5C 450.5,235.5 450.5,233.5 450.5,231.5C 451.833,231.5 453.167,231.5 454.5,231.5C 454.5,236.5 454.5,241.5 454.5,246.5C 453.167,246.5 451.833,246.5 450.5,246.5C 450.5,244.5 450.5,242.5 450.5,240.5C 448.833,240.5 447.167,240.5 445.5,240.5C 445.5,242.5 445.5,244.5 445.5,246.5C 444.5,246.5 443.5,246.5 442.5,246.5C 442.5,241.5 442.5,236.5 442.5,231.5 Z"/></g>
<g><path style="opacity:0.713" fill="#000000" d="M 461.5,231.5 C 462.833,231.5 464.167,231.5 465.5,231.5C 466.589,236.35 468.255,241.017 470.5,245.5C 469.833,245.833 469.167,246.167 468.5,246.5C 466.671,245.535 464.838,244.535 463,243.5C 461.393,243.769 460.226,244.603 459.5,246C 458.056,246.781 456.723,246.614 455.5,245.5C 457.312,240.722 459.312,236.055 461.5,231.5 Z M 462.5,237.5 C 465.377,239.846 465.044,240.679 461.5,240C 462.252,239.329 462.586,238.496 462.5,237.5 Z"/></g>
<g><path style="opacity:0.732" fill="#000000" d="M 471.5,231.5 C 474.518,231.335 477.518,231.502 480.5,232C 482.223,232.775 483.223,234.108 483.5,236C 482.455,237.953 482.455,239.953 483.5,242C 483.561,243.711 482.894,245.044 481.5,246C 478.183,246.498 474.85,246.665 471.5,246.5C 471.5,241.5 471.5,236.5 471.5,231.5 Z M 475.5,235.5 C 479.588,235.218 480.088,235.885 477,237.5C 475.97,237.164 475.47,236.497 475.5,235.5 Z M 475.5,240.5 C 476.833,240.5 478.167,240.5 479.5,240.5C 479.5,241.5 479.5,242.5 479.5,243.5C 478.167,243.5 476.833,243.5 475.5,243.5C 475.5,242.5 475.5,241.5 475.5,240.5 Z"/></g>
<g><path style="opacity:0.747" fill="#000000" d="M 484.5,231.5 C 485.5,231.5 486.5,231.5 487.5,231.5C 487.335,234.518 487.502,237.518 488,240.5C 489.459,243.443 491.126,243.776 493,241.5C 493.498,238.183 493.665,234.85 493.5,231.5C 494.833,231.5 496.167,231.5 497.5,231.5C 497.666,235.514 497.499,239.514 497,243.5C 493.269,247.05 489.269,247.383 485,244.5C 484.501,240.179 484.334,235.846 484.5,231.5 Z"/></g>
<g><path style="opacity:0.727" fill="#000000" d="M 498.5,231.5 C 502.257,231.071 505.757,231.737 509,233.5C 508.909,237.899 509.076,242.232 509.5,246.5C 508.022,246.762 506.689,246.429 505.5,245.5C 503.101,240.025 502.101,240.359 502.5,246.5C 501.167,246.5 499.833,246.5 498.5,246.5C 498.5,241.5 498.5,236.5 498.5,231.5 Z M 502.5,235.5 C 507.833,236.5 507.833,237.5 502.5,238.5C 502.5,237.5 502.5,236.5 502.5,235.5 Z"/></g>
<g><path style="opacity:0.88" fill="#000000" d="M 511.5,231.5 C 512.5,231.5 513.5,231.5 514.5,231.5C 514.5,236.5 514.5,241.5 514.5,246.5C 513.5,246.5 512.5,246.5 511.5,246.5C 511.5,241.5 511.5,236.5 511.5,231.5 Z"/></g>
<g><path style="opacity:0.727" fill="#000000" d="M 526.5,231.5 C 529.448,231.223 532.281,231.556 535,232.5C 535.781,233.944 535.614,235.277 534.5,236.5C 528.578,234.272 526.245,236.105 527.5,242C 530.127,244.017 532.627,243.85 535,241.5C 535.333,242.5 535.667,243.5 536,244.5C 537.667,240.5 539.333,236.5 541,232.5C 542.356,231.62 543.856,231.286 545.5,231.5C 546.693,235.911 548.193,240.244 550,244.5C 550.499,240.179 550.666,235.846 550.5,231.5C 552.144,231.286 553.644,231.62 555,232.5C 557.563,241.528 559.729,241.194 561.5,231.5C 562.833,231.5 564.167,231.5 565.5,231.5C 565.5,236.5 565.5,241.5 565.5,246.5C 564.5,246.5 563.5,246.5 562.5,246.5C 562.783,239.269 561.95,238.936 560,245.5C 557.291,246.706 555.625,245.706 555,242.5C 554.51,243.793 554.343,245.127 554.5,246.5C 551.753,246.813 549.086,246.48 546.5,245.5C 545.829,244.054 544.662,243.388 543,243.5C 541.162,244.535 539.329,245.535 537.5,246.5C 533.195,246.883 528.861,246.383 524.5,245C 521.397,239.886 522.064,235.386 526.5,231.5 Z M 542.5,237.5 C 545.377,239.846 545.044,240.679 541.5,240C 542.252,239.329 542.586,238.496 542.5,237.5 Z"/></g>
<g><path style="opacity:0.724" fill="#000000" d="M 567.5,231.5 C 571.257,231.071 574.757,231.737 578,233.5C 580.197,239.757 578.03,242.757 571.5,242.5C 571.5,243.833 571.5,245.167 571.5,246.5C 570.167,246.5 568.833,246.5 567.5,246.5C 567.5,241.5 567.5,236.5 567.5,231.5 Z M 571.5,235.5 C 576.833,236.5 576.833,237.5 571.5,238.5C 571.5,237.5 571.5,236.5 571.5,235.5 Z"/></g>
<g><path style="opacity:0.699" fill="#000000" d="M 579.5,231.5 C 580.833,231.5 582.167,231.5 583.5,231.5C 583.177,235.226 583.511,238.893 584.5,242.5C 585.5,243.833 586.5,243.833 587.5,242.5C 588.489,238.893 588.823,235.226 588.5,231.5C 589.833,231.5 591.167,231.5 592.5,231.5C 592.5,235.167 592.5,238.833 592.5,242.5C 601.038,243.988 601.538,242.655 594,238.5C 593.188,231.999 596.021,229.832 602.5,232C 603.337,233.011 603.67,234.178 603.5,235.5C 595.919,235.138 595.753,236.471 603,239.5C 603.758,241.769 603.591,243.936 602.5,246C 599.5,246.667 596.5,246.667 593.5,246C 592.874,245.25 592.374,244.416 592,243.5C 591.5,244.667 590.667,245.5 589.5,246C 587.167,246.667 584.833,246.667 582.5,246C 581.333,245.5 580.5,244.667 580,243.5C 579.501,239.514 579.334,235.514 579.5,231.5 Z"/></g>
<g><path style="opacity:1" fill="#151104" d="M 153.5,232.5 C 154.675,232.281 155.675,232.614 156.5,233.5C 158.465,239.931 159.798,239.598 160.5,232.5C 161.5,232.5 162.5,232.5 163.5,232.5C 165.279,242.96 166.613,242.96 167.5,232.5C 168.5,232.5 169.5,232.5 170.5,232.5C 169.915,236.591 168.915,240.591 167.5,244.5C 166.5,245.833 165.5,245.833 164.5,244.5C 163.82,242.111 162.986,239.778 162,237.5C 162.217,241.755 160.384,244.422 156.5,245.5C 155.657,241.127 154.657,236.793 153.5,232.5 Z"/></g>
<g><path style="opacity:1" fill="#483b0c" d="M 173.5,232.5 C 172.903,237.294 173.57,241.627 175.5,245.5C 174.791,246.404 173.791,246.737 172.5,246.5C 172.181,241.637 172.514,236.97 173.5,232.5 Z"/></g>
<g><path style="opacity:1" fill="#000000" d="M 173.5,232.5 C 175.43,236.373 176.097,240.706 175.5,245.5C 173.57,241.627 172.903,237.294 173.5,232.5 Z"/></g>
<g><path style="opacity:1" fill="#1e1807" d="M 179.5,232.5 C 181.833,232.5 184.167,232.5 186.5,232.5C 186.935,235.613 185.935,236.279 183.5,234.5C 182.263,234.556 181.263,235.056 180.5,236C 182.754,237.377 184.92,238.877 187,240.5C 187.835,244.706 186.002,246.706 181.5,246.5C 179.681,246.658 178.348,245.991 177.5,244.5C 179.833,243.833 182.167,243.167 184.5,242.5C 182.203,241.102 180.037,239.436 178,237.5C 177.387,235.505 177.887,233.838 179.5,232.5 Z"/></g>
<g><path style="opacity:1" fill="#100c02" d="M 189.5,232.5 C 195.77,230.899 199.77,233.066 201.5,239C 201.297,241.406 200.297,243.406 198.5,245C 195.518,245.498 192.518,245.665 189.5,245.5C 189.5,241.167 189.5,236.833 189.5,232.5 Z"/></g>
<g><path style="opacity:1" fill="#181305" d="M 206.5,232.5 C 213.996,231.174 217.496,234.174 217,241.5C 213.455,247.209 209.121,247.875 204,243.5C 201.592,239.034 202.425,235.367 206.5,232.5 Z"/></g>
<g><path style="opacity:1" fill="#0d0902" d="M 232.5,232.5 C 233.097,237.294 232.43,241.627 230.5,245.5C 230.663,243.143 230.497,240.81 230,238.5C 227.602,247.654 224.935,247.654 222,238.5C 221.814,240.9 221.314,243.234 220.5,245.5C 219.508,241.217 219.174,236.884 219.5,232.5C 220.5,232.5 221.5,232.5 222.5,232.5C 224.833,243.167 227.167,243.167 229.5,232.5C 230.5,232.5 231.5,232.5 232.5,232.5 Z"/></g>
<g><path style="opacity:1" fill="#483b0c" d="M 232.5,232.5 C 233.486,236.97 233.819,241.637 233.5,246.5C 232.209,246.737 231.209,246.404 230.5,245.5C 232.43,241.627 233.097,237.294 232.5,232.5 Z"/></g>
<g><path style="opacity:1" fill="#1b1606" d="M 245.5,232.5 C 251.651,230.844 255.317,233.01 256.5,239C 254.127,246.875 249.627,248.375 243,243.5C 240.592,239.034 241.425,235.367 245.5,232.5 Z"/></g>
<g><path style="opacity:1" fill="#060400" d="M 261.5,237.5 C 262.609,238.29 263.942,238.79 265.5,239C 263.942,239.21 262.609,239.71 261.5,240.5C 261.5,242.167 261.5,243.833 261.5,245.5C 260.5,245.5 259.5,245.5 258.5,245.5C 258.5,241.167 258.5,236.833 258.5,232.5C 261.572,232.183 264.572,232.516 267.5,233.5C 265.604,234.466 263.604,234.799 261.5,234.5C 261.5,235.5 261.5,236.5 261.5,237.5 Z"/></g>
<g><path style="opacity:1" fill="#151004" d="M 275.5,232.5 C 278.898,232.18 282.232,232.513 285.5,233.5C 284.675,234.386 283.675,234.719 282.5,234.5C 282.5,238.5 282.5,242.5 282.5,246.5C 281.5,246.5 280.5,246.5 279.5,246.5C 279.5,242.5 279.5,238.5 279.5,234.5C 277.517,234.843 276.183,234.176 275.5,232.5 Z"/></g>
<g><path style="opacity:1" fill="#483b0c" d="M 288.5,232.5 C 287.903,237.294 288.57,241.627 290.5,245.5C 289.791,246.404 288.791,246.737 287.5,246.5C 287.181,241.637 287.514,236.97 288.5,232.5 Z"/></g>
<g><path style="opacity:1" fill="#141003" d="M 288.5,232.5 C 290.256,233.552 290.923,235.219 290.5,237.5C 292.5,237.5 294.5,237.5 296.5,237.5C 296.5,235.833 296.5,234.167 296.5,232.5C 297.5,232.5 298.5,232.5 299.5,232.5C 299.5,236.833 299.5,241.167 299.5,245.5C 298.5,245.5 297.5,245.5 296.5,245.5C 296.5,243.833 296.5,242.167 296.5,240.5C 294.5,240.5 292.5,240.5 290.5,240.5C 290.5,242.167 290.5,243.833 290.5,245.5C 288.57,241.627 287.903,237.294 288.5,232.5 Z"/></g>
<g><path style="opacity:1" fill="#1a1405" d="M 310.5,232.5 C 308.844,234.06 306.844,235.06 304.5,235.5C 305.552,237.256 307.219,237.923 309.5,237.5C 309.5,238.5 309.5,239.5 309.5,240.5C 307.833,240.5 306.167,240.5 304.5,240.5C 304.5,241.5 304.5,242.5 304.5,243.5C 306.5,243.5 308.5,243.5 310.5,243.5C 308.012,245.388 305.012,246.055 301.5,245.5C 301.5,241.167 301.5,236.833 301.5,232.5C 304.5,232.5 307.5,232.5 310.5,232.5 Z"/></g>
<g><path style="opacity:1" fill="#010100" d="M 328.5,232.5 C 326.844,234.06 324.844,235.06 322.5,235.5C 322.5,236.167 322.5,236.833 322.5,237.5C 323.609,238.29 324.942,238.79 326.5,239C 324.942,239.21 323.609,239.71 322.5,240.5C 322.5,241.5 322.5,242.5 322.5,243.5C 324.5,243.5 326.5,243.5 328.5,243.5C 326.012,245.388 323.012,246.055 319.5,245.5C 319.5,241.167 319.5,236.833 319.5,232.5C 322.5,232.5 325.5,232.5 328.5,232.5 Z"/></g>
<g><path style="opacity:1" fill="#191406" d="M 335.5,232.5 C 336.833,232.5 338.167,232.5 339.5,232.5C 340.553,236.934 341.886,241.268 343.5,245.5C 341.406,244.758 339.239,244.091 337,243.5C 334.776,244.261 332.609,244.761 330.5,245C 332.072,240.782 333.739,236.615 335.5,232.5 Z"/></g>
<g><path style="opacity:1" fill="#1c1706" d="M 346.5,232.5 C 348.833,232.5 351.167,232.5 353.5,232.5C 353.935,235.613 352.935,236.279 350.5,234.5C 349.263,234.556 348.263,235.056 347.5,236C 349.754,237.377 351.92,238.877 354,240.5C 354.835,244.706 353.002,246.706 348.5,246.5C 346.681,246.658 345.348,245.991 344.5,244.5C 346.833,243.833 349.167,243.167 351.5,242.5C 349.462,240.724 347.296,239.057 345,237.5C 344.387,235.505 344.887,233.838 346.5,232.5 Z"/></g>
<g><path style="opacity:1" fill="#040300" d="M 361.5,245.5 C 359.586,242.316 358.92,238.649 359.5,234.5C 357.833,234.5 356.167,234.5 354.5,234.5C 355.871,233.213 357.705,232.547 360,232.5C 361.833,232.833 363.667,233.167 365.5,233.5C 364.311,234.429 362.978,234.762 361.5,234.5C 361.5,238.167 361.5,241.833 361.5,245.5 Z"/></g>
<g><path style="opacity:1" fill="#826a14" d="M 310.5,232.5 C 311.404,233.209 311.737,234.209 311.5,235.5C 309.167,235.5 306.833,235.5 304.5,235.5C 306.844,235.06 308.844,234.06 310.5,232.5 Z"/></g>
<g><path style="opacity:1" fill="#826a14" d="M 328.5,232.5 C 329.404,233.209 329.737,234.209 329.5,235.5C 327.167,235.5 324.833,235.5 322.5,235.5C 324.844,235.06 326.844,234.06 328.5,232.5 Z"/></g>
<g><path style="opacity:1" fill="#64510f" d="M 195.5,235.5 C 194.5,235.5 193.5,235.5 192.5,235.5C 192.5,238.167 192.5,240.833 192.5,243.5C 191.523,240.713 191.19,237.713 191.5,234.5C 193.099,234.232 194.432,234.566 195.5,235.5 Z"/></g>
<g><path style="opacity:1" fill="#ebbf24" d="M 195.5,235.5 C 196.496,235.414 197.329,235.748 198,236.5C 199.328,241.338 197.494,243.671 192.5,243.5C 192.5,240.833 192.5,238.167 192.5,235.5C 193.5,235.5 194.5,235.5 195.5,235.5 Z"/></g>
<g><path style="opacity:1" fill="#e2b722" d="M 208.5,234.5 C 214.335,235.333 215.668,238.166 212.5,243C 207.502,244.33 205.336,242.496 206,237.5C 206.698,236.309 207.531,235.309 208.5,234.5 Z"/></g>
<g><path style="opacity:1" fill="#e9bd23" d="M 247.5,234.5 C 253.651,235.103 254.984,237.936 251.5,243C 245.92,244.261 244.087,242.094 246,236.5C 246.717,235.956 247.217,235.289 247.5,234.5 Z"/></g>
<g><path style="opacity:1" fill="#6c5711" d="M 354.5,234.5 C 356.167,234.5 357.833,234.5 359.5,234.5C 358.92,238.649 359.586,242.316 361.5,245.5C 360.791,246.404 359.791,246.737 358.5,246.5C 358.5,242.833 358.5,239.167 358.5,235.5C 356.901,235.768 355.568,235.434 354.5,234.5 Z"/></g>
<g><path style="opacity:1" fill="#d7ae21" d="M 336.5,236.5 C 337.837,237.315 338.837,238.482 339.5,240C 338.056,240.781 336.723,240.614 335.5,239.5C 336.127,238.583 336.461,237.583 336.5,236.5 Z"/></g>
<g><path style="opacity:1" fill="#57470e" d="M 261.5,237.5 C 263.167,237.5 264.833,237.5 266.5,237.5C 266.5,238.5 266.5,239.5 266.5,240.5C 264.833,240.5 263.167,240.5 261.5,240.5C 262.609,239.71 263.942,239.21 265.5,239C 263.942,238.79 262.609,238.29 261.5,237.5 Z"/></g>
<g><path style="opacity:1" fill="#4e3f0c" d="M 322.5,237.5 C 324.167,237.5 325.833,237.5 327.5,237.5C 327.5,238.5 327.5,239.5 327.5,240.5C 325.833,240.5 324.167,240.5 322.5,240.5C 323.609,239.71 324.942,239.21 326.5,239C 324.942,238.79 323.609,238.29 322.5,237.5 Z"/></g>
<g><path style="opacity:1" fill="#7c6412" d="M 310.5,243.5 C 311.404,244.209 311.737,245.209 311.5,246.5C 307.958,246.813 304.625,246.479 301.5,245.5C 305.012,246.055 308.012,245.388 310.5,243.5 Z"/></g>
<g><path style="opacity:1" fill="#796212" d="M 328.5,243.5 C 329.404,244.209 329.737,245.209 329.5,246.5C 325.958,246.813 322.625,246.479 319.5,245.5C 323.012,246.055 326.012,245.388 328.5,243.5 Z"/></g>
</svg>
